<svg
	version="1.2"
	xmlns="http://www.w3.org/2000/svg"
	viewBox="0 0 1400 1400"
	width="1400"
	height="1400"
>
	<rect fill="#222" width="1400" height="1400" />

	<path
		fill="#fff"
		d="m1146.6 747.2l-104.2 365.3c-12.9 44.7-58.9 70.2-102.7 57.2l-630.2-179.2c-43.9-13.1-69-59.9-56.1-104.4l107.2-372.6c7.7-25.5 24.5-43.4 42.5-53.7l399.7-222.9c42.1-23.5 94.8-7.8 117.8 35l218.4 406.8c10.6 20.6 14.4 47.1 7.6 68.5z"
	/>
	<path
		fill-rule="evenodd"
		fill="#222"
		d="m738.2 644.2c35.5-51.1 67.6-101.7 127.7-101.7 66.4 0 102.5 55.6 102.7 102.4 0 0.5-0.3 299.8-0.3 299.8h-74.6l-0.4-283.8c0-38.9-31.3-38.8-31.7-38.8-25.3 0-71.7 63.3-123.3 133.6v189.1l-75.5 0.1-0.1-87.6c0 0-49.9 87.6-124.6 87.7-84.8 0-113.6-58.3-113.8-197.9-0.1-133.1 18.8-204.2 109.6-204.3 69.2-0.1 128.5 100.6 128.5 100.6v-63.8l75.9-102.1c0 0-0.3 167.1-0.1 166.7zm-89.1 112.8c0 0-69.3-135.2-114.1-135.2-34.7 0.1-37.7 36.8-37.6 125.2 0.1 88.4 4.9 122.9 37.5 122.9 44.4-0.1 114.2-112.9 114.2-112.9z"
	/>
</svg>
